<?xml version="1.0" standalone="no"?>
<!DOCTYPE svg PUBLIC "-//W3C//DTD SVG 20010904//EN"
 "http://www.w3.org/TR/2001/REC-SVG-20010904/DTD/svg10.dtd">
<svg version="1.0" xmlns="http://www.w3.org/2000/svg"
 width="412.000000pt" height="412.000000pt" viewBox="0 0 412.000000 412.000000"
 preserveAspectRatio="xMidYMid meet">
<metadata>
Created by potrace 1.11, written by Peter Selinger 2001-2013
</metadata>
<g transform="translate(0.000000,412.000000) scale(0.100000,-0.100000)"
fill="#000000" stroke="none">
<path d="M123 4104 c-3 -10 -1 -31 5 -47 6 -17 10 -32 8 -35 -6 -5 -41 15 -61
35 -16 15 -19 15 -43 0 l-27 -16 -3 -250 c-2 -173 1 -251 8 -251 6 0 16 14 22
30 13 37 32 34 36 -6 5 -42 17 -51 73 -59 27 -4 49 -10 49 -14 0 -3 -19 -15
-42 -26 -45 -21 -49 -31 -35 -87 10 -37 -6 -36 -44 2 -25 24 -34 28 -50 20
-18 -10 -19 -24 -19 -241 0 -180 3 -230 13 -226 7 2 16 -10 22 -31 11 -39 24
-48 78 -57 48 -8 47 -19 -3 -34 -22 -6 -40 -17 -40 -22 0 -16 31 -81 48 -101
8 -10 11 -18 6 -18 -12 0 -93 65 -110 87 -11 15 -13 -16 -14 -200 0 -242 9
-302 46 -319 25 -12 31 -32 14 -43 -14 -8 -13 -41 2 -65 19 -29 3 -35 -31 -10
l-31 21 0 -185 c0 -175 1 -187 20 -198 11 -7 20 -18 20 -25 0 -18 -10 -16 -26
5 -12 15 -13 14 -14 -16 0 -19 6 -35 14 -38 7 -3 22 -21 32 -40 11 -19 29 -41
41 -49 11 -8 47 -51 79 -97 124 -178 148 -203 221 -233 38 -15 82 -33 98 -41
17 -7 62 -17 100 -23 206 -30 251 -41 395 -96 19 -8 69 -24 110 -36 41 -12
102 -35 136 -51 34 -16 67 -31 75 -32 14 -3 39 -12 74 -26 11 -5 58 -20 105
-35 47 -14 94 -30 105 -35 25 -11 167 -50 183 -50 37 0 -4 64 -101 158 -48 47
-93 94 -179 186 l-47 51 -30 -23 c-17 -12 -33 -22 -36 -22 -4 0 -3 19 0 42 6
39 3 46 -24 72 -44 42 -40 55 17 53 44 -2 47 0 50 24 2 19 10 28 27 31 19 4
24 0 29 -22 7 -39 28 -56 75 -64 23 -3 41 -10 41 -14 0 -5 -18 -16 -40 -26
-45 -20 -46 -24 -25 -67 9 -16 14 -36 13 -43 -3 -14 46 -69 165 -186 55 -54
72 -66 93 -62 13 2 27 9 31 15 4 6 -2 8 -15 5 -18 -5 -22 -1 -28 30 -5 24 -3
37 5 40 6 2 11 12 11 23 0 16 5 18 28 13 15 -4 34 -13 42 -21 13 -12 11 -13
-20 -11 -30 3 -35 0 -36 -20 -1 -12 3 -22 7 -22 5 0 9 7 9 15 0 29 23 14 106
-67 69 -68 82 -86 78 -105 -5 -18 -2 -23 14 -23 11 0 23 -7 26 -16 3 -8 2 -12
-4 -9 -6 3 -15 3 -21 -1 -15 -9 4 -21 54 -34 42 -12 50 -30 12 -30 -14 0 -33
-9 -42 -20 -10 -11 -30 -20 -45 -20 -16 0 -28 -4 -28 -10 0 -5 -6 -10 -14 -10
-8 0 -16 -6 -18 -12 -4 -10 -17 -10 -64 1 -32 8 -75 14 -94 13 -19 0 -39 3
-45 7 -5 5 -22 11 -36 14 -14 4 -41 17 -61 31 -20 13 -55 27 -79 31 l-44 7 35
-25 c19 -14 52 -35 74 -47 40 -22 66 -44 66 -56 0 -4 -8 -1 -17 7 -24 19 -51
34 -172 96 -58 30 -111 59 -118 65 -7 5 -23 8 -35 5 -13 -4 -41 -2 -63 3 -42
9 -60 5 -29 -7 68 -26 317 -182 352 -221 25 -28 25 -31 13 -51 -12 -19 -58 -6
-122 34 -29 19 -104 60 -167 91 -106 53 -129 72 -136 114 -1 3 -12 19 -24 35
l-24 30 -196 6 c-109 4 -211 11 -227 17 -99 31 -197 113 -310 257 -56 72 -181
202 -260 269 -16 14 -60 42 -98 62 l-67 35 0 -92 c0 -83 3 -95 25 -125 32 -41
32 -51 0 -30 -25 16 -25 16 -25 -18 0 -32 3 -36 48 -51 146 -52 267 -144 347
-265 24 -36 55 -76 70 -90 15 -14 47 -55 72 -92 76 -116 228 -223 356 -253 88
-20 436 -19 444 2 3 8 -6 31 -21 51 -36 52 -34 68 5 45 17 -10 41 -28 54 -40
12 -13 37 -26 56 -30 32 -6 33 -5 19 13 -8 10 -21 24 -29 30 -29 22 10 26 54
5 25 -12 49 -21 55 -21 5 0 10 -5 10 -11 0 -5 -4 -7 -10 -4 -12 7 -14 -8 -2
-19 4 -4 7 -13 7 -19 0 -6 15 -14 33 -18 42 -9 46 -13 32 -38 -7 -14 -21 -21
-40 -21 -18 0 -37 -8 -48 -21 -24 -29 -65 -49 -90 -42 -11 3 -33 -2 -49 -10
-76 -39 -196 -109 -265 -154 -127 -84 -145 -81 -280 42 -69 63 -84 72 -90 58
-5 -13 -7 -10 -7 11 -1 43 -355 393 -455 451 -52 30 -250 113 -273 115 -2 0
-3 -67 -3 -150 0 -137 1 -150 18 -150 18 0 50 -15 127 -59 74 -43 169 -124
342 -293 l172 -168 1478 1 c1574 0 1501 -2 1370 44 -55 20 -91 59 -141 157
-23 44 -30 69 -23 72 7 2 2 5 -11 5 -13 1 -20 5 -17 11 3 6 1 10 -6 10 -7 0
-4 7 7 16 19 15 18 15 -4 11 -12 -3 -20 -1 -16 4 3 5 0 9 -6 9 -6 0 -9 4 -6 9
7 11 -18 33 -27 24 -4 -3 -7 -1 -7 6 0 7 11 12 28 11 45 -3 48 0 22 20 l-25
19 35 -4 c132 -15 128 -15 135 3 6 16 7 16 20 -2 8 -10 19 -15 26 -10 8 4 10
3 5 -4 -8 -14 0 -14 29 -3 12 5 28 3 41 -6 19 -12 24 -12 37 2 17 16 37 20 37
7 0 -17 48 -10 105 17 33 15 94 43 135 62 41 18 88 44 105 57 20 17 31 20 33
12 3 -7 -2 -16 -9 -21 -11 -7 -9 -9 6 -9 15 0 17 -2 6 -9 -9 -6 -11 -15 -6
-27 4 -11 7 -28 6 -39 l-3 -20 16 20 c8 11 16 25 16 31 0 6 9 23 20 37 11 14
20 36 21 49 l1 23 7 -24 c4 -14 3 -59 -1 -100 -4 -42 -7 -137 -6 -211 2 -149
-1 -161 -60 -223 l-36 -37 62 0 62 0 0 679 c0 373 -3 693 -6 710 -4 17 -13 31
-20 31 -8 0 -14 6 -15 13 -1 6 -4 1 -8 -12 -9 -33 -31 -40 -29 -9 1 13 -2 43
-6 67 -5 28 -5 41 2 37 6 -3 10 11 10 35 1 32 -7 52 -36 91 -38 50 -100 94
-88 61 5 -13 4 -14 -9 -3 -12 10 -15 10 -15 -1 -1 -8 -9 4 -20 26 -10 22 -21
39 -25 37 -4 -2 -14 5 -22 15 -14 17 -14 17 -9 0 8 -26 -16 -16 -29 11 -5 12
-15 22 -21 22 -6 0 -16 11 -22 24 -6 14 -22 32 -36 42 l-26 16 48 44 c45 42
46 44 27 56 -11 7 -31 16 -45 19 -14 4 -32 8 -40 10 -8 2 -18 9 -22 14 -5 7
-14 6 -28 -3 -28 -17 -95 -15 -110 3 -7 8 -18 15 -25 15 -6 0 -20 9 -30 20
-23 25 -67 21 -93 -8 -20 -24 -102 -39 -102 -19 0 7 9 30 20 52 21 42 24 55
13 55 -9 -1 -63 -111 -63 -128 0 -7 7 -12 15 -12 17 0 75 -112 75 -143 0 -28
-41 -77 -66 -77 -12 0 -27 -7 -34 -15 -7 -9 -19 -14 -27 -11 -8 3 -16 -1 -19
-9 -4 -8 -15 -15 -25 -15 -10 0 -25 -13 -34 -30 -9 -16 -18 -30 -21 -30 -2 0
0 9 6 19 12 23 13 31 3 30 -21 -3 -33 2 -27 13 4 7 3 8 -4 4 -7 -4 -12 -12
-12 -18 0 -5 -14 -23 -30 -38 -26 -25 -30 -34 -27 -72 5 -54 -19 -103 -50
-104 -25 -1 -31 11 -10 20 6 3 0 4 -15 2 -19 -2 -28 1 -28 10 0 7 6 11 14 8 7
-3 16 2 20 12 5 14 4 15 -8 5 -11 -9 -15 -9 -18 0 -3 8 -9 6 -21 -5 -16 -16
-17 -16 -17 3 0 12 -4 21 -9 21 -5 0 -11 14 -14 30 -7 31 -27 42 -27 15 0 -10
-8 -14 -22 -12 -15 3 -25 16 -36 50 -8 26 -19 44 -24 41 -5 -3 -3 -13 4 -21
11 -14 10 -15 -10 -9 -17 6 -22 3 -22 -9 0 -12 6 -15 19 -10 24 7 37 -11 20
-31 -7 -8 -8 -14 -3 -13 22 5 42 -13 36 -33 -4 -16 -2 -19 8 -13 8 5 11 3 8
-5 -7 -23 -28 -23 -28 -1 0 12 -9 29 -19 38 -11 9 -18 20 -15 25 3 4 -6 13
-20 20 -25 11 -31 23 -28 61 1 9 -3 17 -9 17 -7 0 -8 11 -4 30 5 22 3 30 -7
30 -7 0 -22 7 -33 16 -17 13 -18 16 -5 24 12 8 12 10 1 10 -9 0 -11 8 -7 25 5
18 3 24 -6 23 -9 -2 -12 7 -10 28 2 17 -2 42 -7 56 -7 20 -7 28 3 31 11 4 12
16 5 53 -5 26 -6 50 -2 53 5 3 9 21 10 40 3 36 25 62 31 36 2 -8 9 -15 16 -15
7 0 13 -7 13 -15 0 -8 -4 -15 -9 -15 -4 0 -8 -7 -8 -15 0 -8 5 -15 10 -15 6 0
10 -7 8 -16 -2 -10 3 -19 10 -21 10 -4 12 8 7 53 -4 33 -6 85 -5 117 1 36 -3
57 -10 57 -6 0 -9 8 -6 18 3 9 1 24 -4 32 -5 9 -5 19 2 27 7 9 7 17 -1 27 -9
11 -9 15 1 19 10 4 11 7 1 18 -23 24 -9 160 14 146 5 -3 9 16 9 42 1 29 13 71
30 107 24 51 29 75 34 184 l6 125 73 130 c90 160 119 202 169 247 61 55 126
89 210 108 42 10 93 23 112 29 46 13 140 19 140 9 0 -5 14 -1 30 7 27 14 31
14 36 1 5 -12 11 -13 25 -5 10 5 19 6 19 1 0 -5 14 -7 30 -4 17 2 30 0 30 -4
0 -5 17 -9 37 -8 47 1 103 -13 103 -26 0 -6 11 -10 25 -10 25 0 158 -49 210
-78 16 -10 41 -27 55 -39 13 -13 28 -23 32 -23 5 0 8 129 8 286 l0 285 -30 26
c-16 13 -30 29 -30 34 0 5 -16 24 -35 41 -25 22 -34 36 -30 49 6 17 1 19 -39
19 -27 0 -46 -5 -46 -11 0 -8 -4 -8 -14 0 -9 8 -72 11 -196 10 -111 0 -178 -4
-169 -10 11 -7 9 -9 -8 -9 -12 0 -24 -6 -26 -12 -4 -10 -8 -10 -15 1 -8 11
-11 11 -16 0 -3 -8 -4 -4 -2 9 l4 22 -331 0 c-305 -1 -330 -2 -304 -16 24 -13
34 -14 58 -3 22 8 36 9 53 1 12 -5 44 -8 69 -6 36 2 47 0 47 -11 0 -15 -52
-46 -100 -60 -14 -4 -33 -14 -43 -23 -16 -14 -21 -14 -53 2 -45 21 -53 14 -31
-23 14 -24 14 -31 4 -40 -10 -7 -17 -7 -24 0 -8 8 -17 5 -32 -10 -12 -12 -25
-21 -31 -21 -5 0 -10 -12 -10 -26 0 -14 -5 -34 -10 -44 -8 -15 -6 -21 10 -30
20 -11 20 -12 -14 -59 -43 -58 -124 -250 -172 -406 -7 -21 -18 -31 -39 -37
-139 -34 -157 -37 -176 -25 -10 6 -19 15 -19 19 0 12 -48 10 -55 -2 -3 -5 -12
-10 -20 -10 -15 0 -75 56 -75 71 0 5 -4 9 -10 9 -5 0 -10 -7 -10 -15 0 -8 -18
-26 -40 -40 l-40 -25 -38 39 c-34 36 -39 38 -57 25 -10 -8 -27 -14 -37 -14
-20 0 -23 -11 -7 -27 8 -8 1 -10 -23 -9 -35 2 -41 16 -12 26 13 5 6 9 -23 13
-48 8 -64 32 -27 41 13 4 24 12 24 19 0 22 -40 97 -51 97 -6 0 -24 9 -40 21
-16 11 -29 17 -29 12 0 -4 -7 0 -15 11 -7 10 -18 15 -24 11 -6 -3 -11 1 -11 9
0 20 9 25 77 37 73 14 74 15 62 43 -15 31 -107 61 -129 41 -22 -20 -49 -3 -31
19 7 9 17 14 21 11 5 -3 6 3 3 14 -11 44 69 23 132 -35 34 -31 43 -24 26 21
-10 29 -10 38 3 56 11 16 12 28 5 46 -7 18 -6 30 3 41 11 13 8 14 -20 7 -21
-4 -38 -2 -48 6 -8 6 -17 9 -21 5 -3 -3 -2 -6 4 -6 6 0 14 -8 18 -17 5 -15 4
-16 -6 -5 -7 6 -30 12 -50 12 -28 0 -42 6 -54 23 -15 21 -15 22 12 25 16 2 32
-2 37 -10 7 -12 14 -12 44 3 19 10 38 16 42 14 4 -2 12 7 18 20 7 14 18 25 27
25 25 0 16 34 -17 60 -17 14 -38 33 -47 43 -8 9 -21 17 -27 17 -7 0 -10 8 -7
20 5 18 0 20 -56 20 -55 0 -63 -2 -73 -24 -15 -35 -5 -52 36 -60 53 -10 43
-35 -19 -50 -42 -11 -55 -24 -55 -58 0 -28 -2 -30 -29 -25 -21 5 -37 1 -53
-13 l-23 -19 23 6 c18 4 22 1 22 -16 0 -12 6 -24 13 -26 18 -8 20 -108 3 -150
-16 -36 -44 -47 -63 -22 -19 23 -47 180 -33 185 5 2 14 19 20 38 10 30 9 39
-11 72 -13 20 -29 41 -36 45 -17 10 -17 34 0 40 6 2 -23 20 -66 40 l-77 37
-228 -1 c-172 -1 -214 -4 -172 -10 30 -5 58 -13 63 -18 13 -13 -1 -31 -22 -31
-28 0 -61 -38 -61 -71 l0 -29 -37 15 c-33 14 -38 14 -52 0 -9 -9 -16 -23 -16
-32 0 -9 -6 -18 -14 -21 -8 -3 -11 0 -7 7 4 6 1 11 -7 11 -11 0 -13 11 -9 48
4 43 1 50 -28 79 -18 17 -29 36 -25 42 4 8 -76 11 -275 11 -251 0 -281 -2
-287 -16z m3047 -14 c0 -5 -7 -10 -16 -10 -8 0 -12 5 -9 10 3 6 10 10 16 10 5
0 9 -4 9 -10z m-1384 -33 c17 6 18 -4 1 -21 -17 -18 -37 -9 -37 17 0 15 3 18
11 10 6 -6 18 -9 25 -6z m-1326 -210 c0 -18 6 -41 13 -52 17 -26 11 -125 -8
-125 -8 0 -17 4 -20 10 -4 6 -21 0 -43 -15 -45 -30 -62 -20 -44 27 10 28 9 34
-18 68 -17 21 -30 40 -30 43 0 3 21 7 48 9 42 3 47 6 51 28 6 49 51 56 51 7z
m3023 8 c-3 -9 -8 -14 -10 -11 -3 3 -2 9 2 15 9 16 15 13 8 -4z m14 -47 c-3
-8 -6 -5 -6 6 -1 11 2 17 5 13 3 -3 4 -12 1 -19z m212 -5 c0 -16 -3 -22 -6
-15 -2 6 -9 9 -15 6 -6 -4 -5 2 1 15 16 28 21 26 20 -6z m-122 -45 c-2 -13 -4
-5 -4 17 -1 22 1 32 4 23 2 -10 2 -28 0 -40z m-2377 -23 c0 -44 0 -44 27 -34
29 11 103 3 103 -11 0 -5 -6 -15 -14 -23 -8 -8 -14 -22 -13 -33 1 -12 -3 -18
-12 -16 -8 2 -18 -3 -23 -10 -7 -10 -8 -10 -7 2 3 33 -1 44 -12 33 -7 -7 -6
-21 6 -48 22 -55 5 -66 -40 -26 -35 30 -38 31 -58 17 -50 -36 -54 -37 -59 -11
-3 14 -2 25 3 25 14 0 2 48 -20 75 -27 36 -27 45 4 45 22 0 24 3 19 30 -7 33
3 38 37 18 18 -11 23 -10 32 4 17 26 27 12 27 -37z m-630 35 c0 -5 -13 -10
-30 -10 -16 0 -30 5 -30 10 0 6 14 10 30 10 17 0 30 -4 30 -10z m3183 -25 c-3
-9 -8 -14 -10 -11 -3 3 -2 9 2 15 9 16 15 13 8 -4z m-2943 -257 c1 -29 22 -58
44 -58 9 0 16 -4 16 -10 0 -5 14 -10 30 -10 17 0 30 -4 30 -9 0 -10 -10 -13
-64 -26 -28 -6 -28 -8 -24 -56 5 -46 3 -50 -13 -46 -14 4 -19 0 -19 -15 0 -17
-3 -18 -15 -8 -9 8 -13 21 -9 36 8 31 -1 30 -43 -2 l-34 -26 6 49 c6 44 4 51
-25 81 -35 36 -33 52 5 44 20 -3 27 0 31 15 4 14 13 19 30 17 18 -2 26 4 30
22 8 30 24 31 24 2z m648 -48 c7 0 20 -6 27 -12 43 -39 45 -40 45 -18 0 11 7
20 15 20 8 0 15 -9 15 -20 0 -44 18 -56 79 -52 43 3 53 1 44 -8 -6 -7 -9 -18
-6 -26 3 -8 -8 -18 -29 -27 -53 -22 -62 -39 -42 -81 10 -20 15 -39 11 -42 -3
-4 -24 8 -46 25 -42 33 -55 33 -79 -1 -7 -10 -19 -18 -27 -18 -11 0 -10 7 3
40 l15 41 -36 36 c-41 39 -40 57 4 48 25 -6 29 -4 29 14 0 12 -4 21 -10 21 -5
0 -10 6 -10 13 0 7 -9 23 -20 35 -21 22 -28 44 -8 24 7 -7 18 -12 26 -12z
m313 -78 c-7 -2 -18 1 -23 6 -8 8 -4 9 13 5 13 -4 18 -8 10 -11z m-1347 -206
c5 -33 12 -45 27 -49 18 -5 20 -11 14 -51 -4 -26 -3 -52 2 -59 6 -6 13 -25 17
-42 4 -16 16 -35 27 -43 10 -7 19 -20 19 -28 0 -8 4 -13 9 -9 5 3 12 1 16 -5
3 -5 1 -10 -6 -10 -7 0 -45 34 -84 76 l-71 75 -38 -26 c-21 -14 -40 -24 -43
-21 -3 2 1 20 8 40 12 32 10 38 -14 75 -15 22 -27 45 -27 50 0 5 18 7 40 4 36
-5 40 -3 40 16 0 14 6 21 20 21 11 0 20 7 20 15 0 34 18 12 24 -29z m1158 3
c24 -23 73 -66 109 -95 63 -52 119 -118 119 -141 0 -8 -10 -8 -35 -1 -19 6
-32 15 -29 20 3 4 -1 8 -9 8 -8 0 -22 9 -32 20 -11 12 -34 28 -53 37 -22 11
-31 21 -27 31 5 15 -11 42 -25 42 -5 0 -6 -9 -3 -20 4 -14 0 -20 -11 -20 -10
0 -15 4 -12 9 3 5 -1 11 -9 14 -10 4 -12 1 -8 -10 5 -12 3 -14 -6 -8 -8 4 -16
3 -20 -4 -11 -18 -61 26 -61 53 0 30 9 37 31 26 9 -6 25 -7 33 -4 18 7 22 39
6 49 -10 6 -14 35 -5 35 3 0 24 -19 47 -41z m-627 -19 c3 -6 -1 -7 -9 -4 -18
7 -21 14 -7 14 6 0 13 -4 16 -10z m963 -24 c18 -38 21 -55 11 -62 -6 -3 -13 4
-16 16 -3 11 -11 19 -18 16 -6 -2 -19 8 -27 22 -16 27 -16 27 12 28 19 1 31
-5 38 -20z m410 3 c25 -9 34 -19 44 -57 24 -83 -17 -178 -59 -137 -8 9 -17 14
-20 12 -2 -3 16 -26 41 -53 25 -27 46 -51 46 -55 0 -14 37 -46 67 -58 40 -16
44 -28 39 -120 -4 -64 -8 -77 -35 -110 -45 -52 -91 -145 -91 -182 0 -17 -5
-49 -11 -70 -9 -30 -18 -39 -40 -44 -16 -4 -29 -11 -29 -16 0 -5 -7 -9 -15 -9
-24 0 -18 -19 20 -63 49 -57 88 -138 74 -151 -8 -8 -13 -8 -16 0 -4 13 -43 7
-43 -7 0 -5 5 -9 10 -9 7 0 7 -6 1 -17 -5 -10 -12 -39 -16 -65 -4 -27 -11 -48
-16 -48 -10 0 -4 -31 10 -59 6 -11 11 -33 11 -50 0 -17 4 -31 9 -31 6 0 11
-21 13 -47 4 -58 28 -72 28 -16 1 39 18 73 39 73 23 0 61 -33 86 -75 14 -24
39 -53 55 -65 23 -17 30 -29 30 -55 0 -19 7 -64 15 -100 18 -75 12 -125 -16
-151 -10 -9 -19 -24 -19 -33 -1 -9 -13 -30 -28 -47 -21 -25 -38 -33 -80 -39
l-53 -7 6 -39 c8 -44 -1 -48 -38 -19 -15 12 -29 21 -32 20 -8 0 -44 38 -39 42
2 3 -2 5 -9 5 -6 0 -23 3 -36 7 -16 6 -21 5 -17 -3 9 -14 0 -14 -25 -1 -34 19
-21 -4 42 -70 77 -83 98 -131 63 -144 -11 -4 -31 10 -64 44 -26 27 -55 50 -64
50 -9 0 -16 6 -16 13 0 6 -14 21 -30 32 -16 11 -30 22 -30 25 0 3 -18 25 -39
49 -31 34 -45 42 -61 38 -12 -3 -33 -1 -47 6 -16 7 -27 8 -31 1 -15 -22 -41
-23 -56 -2 -8 12 -26 20 -40 20 -14 1 -30 6 -35 12 -19 23 -9 461 13 561 3 11
5 31 6 45 1 14 4 19 7 13 7 -19 27 -16 56 7 l25 20 1 -61 c0 -40 6 -65 15 -73
7 -6 19 -29 26 -51 13 -41 46 -85 63 -85 6 0 2 8 -7 19 -23 26 -40 89 -28 104
6 7 14 28 19 47 7 25 15 35 29 35 53 1 124 -71 124 -127 0 -18 -10 -39 -26
-55 -14 -14 -23 -28 -20 -30 7 -8 66 56 66 72 0 7 9 24 20 38 11 14 20 37 20
51 0 20 5 26 23 26 20 1 21 2 5 14 -10 7 -19 30 -21 54 -4 41 -44 105 -59 96
-4 -3 -8 -1 -8 4 0 9 -29 20 -75 29 -11 2 -21 8 -23 13 -2 6 -15 10 -29 10
-13 0 -31 7 -40 15 -8 9 -18 14 -21 11 -3 -3 7 -16 21 -29 31 -26 33 -39 12
-57 -24 -20 -67 -15 -87 10 -16 20 -19 21 -34 5 -16 -15 -18 -15 -33 0 -21 21
-23 185 -2 193 7 3 17 -1 22 -9 5 -8 9 -11 9 -7 0 3 3 14 7 24 5 13 3 16 -10
11 -20 -7 -23 13 -5 31 9 9 9 12 0 12 -20 0 -13 20 11 30 20 8 19 9 -11 9 -24
1 -35 7 -41 24 -6 14 -5 25 3 32 8 7 12 49 11 133 0 68 2 125 6 128 9 5 9 64
-1 64 -5 0 -14 16 -20 35 -6 19 -16 33 -21 30 -5 -4 -9 1 -9 10 0 9 -4 13 -10
10 -5 -3 -7 0 -4 9 4 10 18 15 42 13 l37 -2 3 47 c4 56 19 72 55 59 29 -11 41
-2 31 23 -7 19 -30 21 -37 4 -2 -7 -8 -9 -13 -5 -5 5 -1 14 9 21 18 14 24 42
6 30 -17 -10 -28 16 -18 43 5 13 5 23 0 23 -5 0 -14 14 -20 30 -9 28 0 42 14
19 4 -6 13 -8 21 -5 9 4 18 -4 25 -21 9 -23 7 -30 -13 -45 l-23 -18 34 10 c21
6 40 6 52 0 14 -8 18 -6 21 13 2 14 11 23 26 25 12 2 20 7 17 12 -3 5 3 11 14
15 13 4 17 12 14 25 -4 16 -2 19 11 14 9 -4 20 -19 23 -35 3 -16 12 -29 19
-29 8 0 14 -4 14 -10 0 -14 42 -50 58 -50 10 0 12 7 8 26 -4 16 -3 23 3 19 6
-3 14 7 17 22 13 51 51 99 90 113 1 0 15 -5 32 -11z m-1129 -83 c7 -8 33 -18
57 -22 24 -3 44 -9 44 -13 0 -4 -16 -13 -35 -20 -22 -8 -37 -21 -41 -35 -5
-23 38 -136 53 -136 9 0 98 -87 128 -124 11 -15 30 -26 44 -26 22 0 23 3 18
44 l-6 45 32 -14 c24 -10 34 -22 40 -48 8 -31 13 -35 63 -47 61 -15 65 -27 15
-44 -49 -16 -60 -38 -37 -77 24 -41 9 -58 -30 -33 -16 10 -35 24 -41 33 -11
13 -17 12 -43 -7 -16 -12 -31 -22 -33 -22 -3 0 -2 19 0 43 4 37 1 45 -26 71
-19 18 -31 40 -31 55 0 19 -25 52 -93 121 -51 52 -100 106 -109 118 -15 23
-17 23 -41 7 -18 -11 -23 -22 -20 -36 5 -19 4 -20 -14 -8 -17 10 -19 20 -15
55 4 35 0 48 -23 78 l-27 35 24 5 c12 3 34 7 48 8 19 2 26 10 28 31 2 15 7 25
12 22 4 -3 14 3 21 12 12 14 15 12 20 -20 3 -20 11 -43 18 -51z m-659 65 c0
-15 -19 -23 -38 -16 -14 5 -14 7 -2 15 19 12 40 13 40 1z m185 -281 c4 -6 14
-8 24 -5 13 4 19 -4 27 -37 6 -30 15 -42 29 -44 91 -13 112 -32 53 -49 -45
-14 -55 -36 -39 -82 11 -28 11 -38 2 -41 -15 -5 184 -195 213 -203 45 -13 62
33 24 66 -21 18 -21 20 -5 23 10 2 26 -3 35 -11 9 -8 22 -13 28 -10 7 2 14
-13 18 -36 7 -44 41 -76 70 -65 9 3 24 3 34 -1 16 -6 16 -7 -1 -16 -9 -6 -26
-8 -35 -4 -13 3 -23 -2 -32 -20 -12 -22 -11 -30 2 -59 23 -46 9 -63 -28 -34
-16 12 -30 26 -32 30 -6 14 -28 9 -54 -12 -33 -25 -41 -16 -23 27 14 34 14 35
-23 73 -135 139 -224 228 -246 247 -16 13 -26 32 -26 48 l0 27 -36 -27 c-19
-15 -38 -25 -40 -22 -3 3 -1 21 5 41 9 34 7 40 -20 71 -21 24 -29 40 -24 54 3
12 -1 32 -11 48 -14 22 -8 19 27 -14 50 -48 52 -49 72 -28 15 15 12 55 -4 55
-5 0 -9 5 -9 10 0 13 17 13 25 0z m1037 -142 c44 -48 61 -80 46 -89 -27 -17
-127 84 -114 116 9 24 26 17 68 -27z m-1047 -98 c-3 -5 -11 -10 -16 -10 -6 0
-7 5 -4 10 3 6 11 10 16 10 6 0 7 -4 4 -10z m-319 -62 c9 -42 10 -43 62 -52
28 -5 52 -12 52 -15 0 -3 -18 -14 -40 -23 -43 -18 -49 -35 -25 -71 27 -41 2
-49 -37 -11 -43 40 -50 41 -89 13 -32 -22 -38 -13 -20 34 8 20 5 31 -15 58
-34 46 -31 52 21 45 45 -7 45 -7 45 22 0 58 33 58 46 0z m1119 -39 c9 -28 -2
-37 -19 -14 -7 10 -18 15 -24 11 -7 -4 -12 -3 -12 3 0 10 16 19 37 20 6 1 15
-8 18 -20z m999 -5 c11 -29 6 -33 -24 -22 -17 5 -37 7 -45 4 -21 -8 -19 11 3
23 26 16 59 13 66 -5z m-111 -167 c-2 -99 -2 -99 -14 -91 -17 10 -3 154 14
154 1 0 1 -28 0 -63z m41 -126 c6 23 7 23 21 -10 8 -18 15 -42 15 -53 0 -10 5
-16 10 -13 6 3 10 -3 10 -14 0 -23 16 -36 25 -21 9 15 42 12 48 -4 3 -8 4 -27
2 -42 -2 -16 -6 -65 -10 -108 -3 -44 -8 -83 -11 -88 -8 -13 -54 -9 -54 5 -2
50 -34 177 -64 251 -40 100 -47 135 -17 97 l18 -24 7 24z m-1704 -24 c0 -37
27 -65 70 -72 55 -9 58 -21 8 -37 -27 -9 -42 -19 -40 -28 18 -81 9 -90 -40
-43 -26 24 -30 25 -55 13 -16 -8 -32 -16 -37 -18 -5 -3 -6 12 -2 33 7 34 4 41
-25 71 -30 31 -32 36 -17 50 14 15 18 14 42 -1 21 -14 29 -15 41 -5 9 7 13 21
10 31 -5 16 4 23 38 28 4 0 7 -9 7 -22z m507 -29 c21 -17 66 -59 100 -92 46
-44 66 -57 74 -49 15 15 5 42 -31 80 -16 18 -30 37 -30 42 0 6 -5 11 -12 11
-6 0 -9 3 -5 6 3 3 30 -13 60 -35 29 -23 61 -41 70 -41 10 0 17 -7 17 -15 0
-47 52 -92 91 -80 11 4 19 2 19 -4 0 -6 -11 -11 -24 -11 -36 0 -60 -43 -47
-82 6 -17 11 -35 11 -39 0 -14 -27 -10 -40 6 -18 22 -30 19 -30 -7 -1 -23 -1
-23 -16 -3 -9 12 -11 21 -4 23 10 4 14 32 4 32 -3 0 -21 -12 -40 -26 -19 -15
-37 -24 -40 -21 -3 3 0 21 7 41 12 34 11 37 -19 75 -18 23 -29 46 -26 55 4 10
-9 29 -37 53 -97 88 -121 113 -106 113 9 0 33 -14 54 -32z m323 -60 c0 -4 9
-10 20 -13 11 -3 24 -15 30 -25 9 -18 9 -18 -28 0 -20 10 -40 16 -44 14 -4 -3
-17 3 -28 14 -20 18 -20 18 15 18 19 -1 35 -4 35 -8z m309 -160 c-12 -22 -36
-34 -47 -23 -4 3 1 11 11 17 13 7 17 17 13 34 -6 23 -6 23 13 7 15 -13 18 -21
10 -35z m-1511 -23 c9 -32 17 -45 30 -45 10 0 26 -6 36 -13 17 -12 16 -14 -9
-31 -21 -14 -25 -23 -21 -42 8 -32 -5 -30 -43 5 -18 17 -38 28 -47 24 -8 -3
-14 1 -14 8 0 8 -3 24 -6 37 -5 16 -2 22 9 22 9 0 18 13 22 33 14 63 26 63 43
2z m3239 34 c-9 -6 -15 -14 -12 -20 4 -5 -1 -12 -9 -15 -9 -3 -13 -10 -10 -15
3 -5 0 -9 -5 -9 -6 0 -11 -7 -11 -16 0 -8 -4 -13 -9 -10 -5 4 -7 -3 -4 -14 3
-11 3 -27 -1 -36 -5 -14 -8 -14 -23 1 -13 14 -14 21 -5 36 17 26 15 36 -8 42
-34 9 -12 34 43 50 62 18 78 20 54 6z m-1517 -37 c22 -27 26 -57 9 -67 -5 -4
-28 12 -51 34 -31 33 -38 44 -29 55 16 19 47 9 71 -22z m321 -23 c8 -16 8 -24
0 -32 -14 -14 -31 6 -31 36 0 23 17 22 31 -4z m-981 -39 c0 -5 -4 -10 -10 -10
-5 0 -10 5 -10 10 0 6 5 10 10 10 6 0 10 -4 10 -10z m-320 -53 c0 -34 20 -54
68 -67 23 -6 42 -14 42 -18 0 -4 -15 -14 -33 -22 -27 -13 -32 -20 -29 -45 5
-57 10 -82 22 -105 11 -21 10 -21 -24 5 -20 15 -43 43 -52 61 -19 41 -27 42
-66 9 -17 -14 -32 -24 -34 -22 -3 2 3 20 11 40 21 50 19 64 -11 92 -15 14 -22
25 -16 25 6 0 13 -4 17 -10 10 -16 55 12 62 39 8 36 12 41 29 41 8 0 14 -10
14 -23z m2162 -3 c-14 -10 -22 -26 -23 -47 -1 -26 -3 -28 -6 -8 -6 30 15 71
36 71 11 0 9 -4 -7 -16z m-1762 2 c0 -3 -4 -8 -10 -11 -5 -3 -10 -1 -10 4 0 6
5 11 10 11 6 0 10 -2 10 -4z m2044 -65 c15 7 31 7 51 -2 l30 -11 -40 -19 c-67
-31 -95 -20 -94 36 0 30 0 30 15 8 13 -18 20 -20 38 -12z m-3439 -41 c3 -5 1
-10 -4 -10 -6 0 -11 5 -11 10 0 6 2 10 4 10 3 0 8 -4 11 -10z m2734 -80 c1 -3
-8 -6 -19 -6 -23 0 -24 1 -8 29 11 21 11 21 19 2 4 -11 8 -22 8 -25z m931 15
c14 -8 36 -14 49 -15 27 0 61 -26 61 -46 0 -7 5 -14 12 -16 7 -3 13 -30 15
-68 2 -35 0 -61 -3 -57 -12 12 -33 -17 -22 -30 7 -9 7 -13 -2 -13 -7 0 -3 -11
9 -26 27 -34 27 -53 1 -29 -18 17 -20 17 -14 2 5 -13 2 -16 -9 -11 -9 3 -15
11 -13 17 1 7 1 9 -1 5 -3 -5 -12 -8 -20 -8 -10 0 -13 -5 -8 -17 13 -32 18
-86 7 -79 -6 3 -12 -2 -15 -11 -2 -13 -9 -6 -20 22 -10 22 -27 46 -38 54 l-22
13 21 -30 c12 -16 18 -32 15 -36 -4 -4 -6 -26 -4 -49 2 -40 2 -41 -13 -22 -12
15 -16 16 -16 5 0 -8 -7 -3 -16 13 -22 40 -26 33 -8 -13 9 -23 14 -44 10 -47
-3 -4 -6 1 -6 10 0 10 -5 14 -15 11 -14 -6 -20 7 -15 31 1 6 -2 7 -6 2 -12
-11 -12 -47 -1 -40 6 4 8 -1 4 -11 -4 -10 -7 -22 -7 -27 0 -15 -27 2 -38 24
-7 14 -11 17 -11 7 -1 -13 -2 -13 -11 0 -8 12 -10 10 -10 -10 0 -14 -5 -32
-11 -40 -8 -12 -9 -10 -4 8 5 17 1 28 -12 37 -21 16 -37 19 -28 6 3 -5 1 -12
-3 -15 -5 -3 -15 6 -22 19 -7 14 -17 25 -22 25 -4 0 -11 0 -15 0 -5 0 -9 -4
-9 -10 -3 -23 -5 -24 -15 -10 -9 12 -10 11 -6 -7 3 -16 1 -20 -9 -16 -10 4
-12 13 -8 27 7 21 6 21 -15 2 -18 -17 -21 -17 -21 -3 0 10 -6 14 -14 11 -7 -3
-16 2 -19 10 -4 9 -13 13 -22 10 -8 -3 -15 -1 -15 5 0 18 -18 13 -22 -6 -3
-12 -10 -1 -22 29 -16 41 -21 46 -45 44 -15 -2 -31 -12 -37 -25 -19 -38 -26
-37 -22 4 3 34 0 40 -17 40 -11 0 -26 -7 -33 -15 -11 -13 -11 -11 -2 8 7 13
17 21 25 18 13 -4 22 7 23 29 0 6 -6 9 -15 7 -9 -2 -19 2 -24 9 -8 14 10 49
27 49 6 0 25 7 43 16 34 17 81 12 81 -9 0 -14 45 -37 72 -37 10 0 21 -7 24
-15 4 -10 10 -12 18 -6 6 4 20 5 30 1 19 -6 75 14 87 32 3 5 12 2 19 -7 7 -8
23 -15 36 -15 13 0 24 -6 25 -12 0 -7 5 -1 11 14 8 23 15 27 46 27 65 0 82 4
71 17 -7 8 -5 11 7 10 9 0 19 5 21 12 3 7 -1 11 -9 10 -9 -2 -12 5 -10 22 4
24 3 25 -12 5 -14 -18 -15 -18 -16 -2 0 9 -3 18 -7 18 -5 1 -21 3 -36 5 -16 1
-35 8 -43 15 -8 6 -17 9 -21 6 -3 -4 -14 -2 -24 4 -14 7 -19 6 -19 -3 0 -11
-2 -11 -8 0 -5 7 -19 14 -32 17 -12 2 -25 7 -28 10 -3 2 -11 0 -18 -6 -7 -6
-27 -8 -43 -6 -17 3 -31 1 -31 -4 0 -5 -12 -4 -26 1 -17 7 -31 7 -38 1 -7 -6
-18 -6 -26 -1 -8 5 -22 4 -33 -2 -10 -5 -31 -7 -45 -4 -20 5 -23 4 -12 -3 23
-15 0 -29 -35 -20 -16 3 -24 7 -17 8 6 0 12 6 12 12 0 7 -10 9 -25 7 -30 -6
-30 -4 -8 22 10 11 28 20 41 20 13 0 30 7 38 15 9 8 31 15 50 15 38 0 73 15
89 37 8 10 41 16 115 19 57 3 106 7 109 10 11 11 148 2 171 -11z m-1030 -10
c0 -8 -2 -15 -4 -15 -2 0 -6 7 -10 15 -3 8 -1 15 4 15 6 0 10 -7 10 -15z m390
-55 c0 -5 -5 -10 -11 -10 -5 0 -7 5 -4 10 3 6 8 10 11 10 2 0 4 -4 4 -10z
m-2420 -42 c0 -10 -5 -18 -11 -18 -5 0 -7 -5 -4 -10 4 -6 11 -8 16 -4 6 3 33
0 62 -7 l52 -12 -33 -9 c-39 -10 -49 -30 -34 -64 15 -32 3 -30 -36 6 -35 31
-66 39 -76 18 -4 -7 -4 -2 -1 12 3 18 -4 33 -28 58 l-32 33 42 -7 c40 -6 43
-5 53 22 9 23 13 25 20 14 6 -8 10 -23 10 -32z m2641 -41 c-10 -9 -11 -8 -5 6
3 10 9 15 12 12 3 -3 0 -11 -7 -18z m-147 -32 c3 -8 1 -15 -3 -15 -5 0 -11 7
-15 15 -3 8 -1 15 3 15 5 0 11 -7 15 -15z m-19 -35 c15 -17 16 -20 3 -20 -9 0
-18 9 -21 20 -3 11 -4 20 -3 20 2 0 11 -9 21 -20z m526 -7 c13 -16 12 -17 -3
-4 -17 13 -22 21 -14 21 2 0 10 -8 17 -17z m333 -14 c-8 -14 -21 -11 -21 5 0
8 6 12 14 9 7 -3 10 -9 7 -14z m37 -63 c-6 -14 -16 -26 -22 -26 -9 0 -9 -3 0
-14 9 -10 8 -15 -3 -19 -11 -4 -13 -1 -9 10 5 12 3 14 -8 8 -10 -6 -9 -3 2 11
9 10 14 25 12 32 -3 6 2 12 11 12 9 0 16 5 16 12 0 6 2 9 5 6 3 -3 1 -17 -4
-32z m-46 -86 c-3 -5 -12 -10 -18 -10 -7 0 -6 4 3 10 19 12 23 12 15 0z
m-2475 -290 c0 -5 -2 -10 -4 -10 -3 0 -8 5 -11 10 -3 6 -1 10 4 10 6 0 11 -4
11 -10z m2345 -380 c-3 -5 -10 -10 -16 -10 -5 0 -9 5 -9 10 0 6 7 10 16 10 8
0 12 -4 9 -10z m-55 -35 c0 -2 -13 -11 -30 -20 -16 -9 -30 -12 -30 -7 0 5 10
14 23 20 25 12 37 14 37 7z"/>
<path d="M1936 2942 c6 -4 14 -16 17 -26 10 -25 21 -13 12 13 -3 12 -14 21
-23 21 -10 0 -13 -3 -6 -8z"/>
<path d="M2236 2906 c3 -8 15 -14 25 -13 19 1 19 2 3 14 -23 17 -35 16 -28 -1z"/>
<path d="M1986 2887 c3 -10 9 -15 12 -12 3 3 0 11 -7 18 -10 9 -11 8 -5 -6z"/>
<path d="M2285 2870 c-3 -5 -1 -10 4 -10 6 0 11 5 11 10 0 6 -2 10 -4 10 -3 0
-8 -4 -11 -10z"/>
<path d="M1990 2856 c0 -9 30 -14 35 -6 4 6 -3 10 -14 10 -12 0 -21 -2 -21 -4z"/>
<path d="M2310 2836 c0 -9 5 -16 10 -16 6 0 10 4 10 9 0 6 -4 13 -10 16 -5 3
-10 -1 -10 -9z"/>
<path d="M1940 2530 c0 -6 20 -46 44 -88 52 -91 64 -155 35 -176 -13 -9 -20
-27 -22 -56 -2 -47 -21 -64 -30 -28 -4 12 -9 20 -12 16 -11 -11 14 -56 35 -63
11 -3 18 -10 15 -15 -3 -4 3 -11 12 -14 19 -8 40 8 24 18 -18 12 -13 46 7 44
36 -3 52 3 52 18 0 8 5 12 10 9 12 -7 -8 42 -26 65 -32 42 -21 94 43 200 18
30 33 59 33 63 0 18 -20 -6 -49 -58 -45 -79 -67 -75 -121 23 -24 44 -50 66
-50 42z"/>
<path d="M1879 2168 c-7 -36 -6 -59 4 -55 7 3 11 10 10 16 -2 6 4 11 13 11 20
0 13 24 -9 28 -9 2 -17 2 -18 0z"/>
<path d="M1905 2100 c3 -5 8 -10 11 -10 2 0 4 5 4 10 0 6 -5 10 -11 10 -5 0
-7 -4 -4 -10z"/>
<path d="M2060 2080 c0 -6 7 -13 15 -17 24 -9 27 1 5 15 -13 8 -20 8 -20 2z"/>
<path d="M1845 2060 c-3 -5 -1 -10 4 -10 6 0 11 5 11 10 0 6 -2 10 -4 10 -3 0
-8 -4 -11 -10z"/>
<path d="M1845 1820 c-3 -5 -1 -10 4 -10 6 0 11 5 11 10 0 6 -2 10 -4 10 -3 0
-8 -4 -11 -10z"/>
<path d="M3205 1490 c3 -5 8 -10 11 -10 2 0 4 5 4 10 0 6 -5 10 -11 10 -5 0
-7 -4 -4 -10z"/>
<path d="M758 4113 c7 -3 16 -2 19 1 4 3 -2 6 -13 5 -11 0 -14 -3 -6 -6z"/>
<path d="M1440 4116 c0 -7 44 -33 68 -41 23 -7 23 -7 7 19 -12 18 -26 26 -46
26 -16 0 -29 -2 -29 -4z"/>
<path d="M1605 4110 c4 -6 11 -8 16 -5 14 9 11 15 -7 15 -8 0 -12 -5 -9 -10z"/>
<path d="M1845 4110 c3 -5 15 -10 26 -10 10 0 19 5 19 10 0 6 -12 10 -26 10
-14 0 -23 -4 -19 -10z"/>
<path d="M2156 4093 c37 -34 64 -73 64 -91 0 -11 -13 -12 -62 -8 -124 13 -183
12 -210 -1 -49 -24 -30 -53 37 -57 62 -3 68 -16 75 -170 3 -83 9 -121 18 -124
9 -3 12 23 12 106 0 120 15 172 51 172 10 0 19 5 19 10 0 6 13 10 28 10 15 0
32 4 38 10 6 6 23 1 48 -16 20 -14 40 -24 42 -21 9 9 -8 36 -26 42 -19 6 -80
121 -80 150 0 11 -11 15 -42 15 l-42 0 30 -27z"/>
<path d="M2270 4115 c0 -2 9 -9 20 -15 16 -9 20 -8 20 5 0 8 -9 15 -20 15 -11
0 -20 -2 -20 -5z"/>
<path d="M2320 4115 c0 -9 64 -45 80 -45 8 0 28 11 44 25 l29 25 -76 0 c-43 0
-77 -2 -77 -5z"/>
<path d="M2706 4105 c4 -8 15 -15 25 -15 10 0 19 7 19 15 0 9 -9 15 -25 15
-18 0 -23 -4 -19 -15z"/>
<path d="M1988 4103 c-10 -2 -18 -11 -18 -19 0 -20 14 -17 35 6 18 20 16 22
-17 13z"/>
<path d="M2350 4006 c0 -7 -9 -16 -20 -19 -22 -6 -27 -35 -7 -42 6 -2 28 -6
46 -8 32 -3 36 -7 50 -53 8 -27 16 -87 18 -134 7 -151 24 -149 35 3 10 145 17
177 37 177 9 0 22 -5 29 -12 9 -9 16 -7 32 10 11 11 20 30 20 40 0 16 -10 20
-64 26 -35 3 -70 4 -79 0 -8 -3 -29 2 -46 10 -37 20 -51 20 -51 2z"/>
<path d="M1510 3820 c0 -5 5 -10 10 -10 6 0 10 5 10 10 0 6 -4 10 -10 10 -5 0
-10 -4 -10 -10z"/>
<path d="M3100 2743 c-8 -3 -28 -11 -45 -18 -79 -33 -203 -43 -197 -16 1 7 -2
10 -8 6 -6 -3 -8 -11 -4 -16 3 -6 -3 -19 -15 -30 -12 -11 -21 -28 -21 -39 0
-10 -9 -21 -20 -25 -11 -3 -19 -9 -18 -13 4 -17 -15 -52 -28 -52 -8 0 -14 -9
-14 -20 0 -11 -5 -20 -11 -20 -6 0 3 -13 19 -30 17 -16 36 -30 44 -30 7 0 50
-22 95 -48 58 -35 79 -52 72 -59 -8 -8 5 -16 44 -27 30 -9 59 -16 64 -16 5 0
17 -9 27 -21 12 -15 26 -20 46 -17 16 2 26 0 23 -5 -3 -5 5 -7 18 -5 15 2 25
11 26 23 2 11 0 14 -3 8 -4 -9 -11 -10 -24 -3 -11 6 -23 10 -27 9 -20 -3 -43
2 -43 10 0 4 15 7 33 5 20 -3 36 1 43 11 6 8 20 16 30 18 10 1 25 6 32 10 6 5
12 5 12 0 0 -4 5 -1 10 9 6 10 18 14 30 11 11 -3 20 0 20 6 0 6 -6 11 -12 11
-7 1 -3 9 10 19 15 13 18 21 10 24 -10 4 -10 7 -1 17 18 19 30 -15 13 -35 -7
-8 -9 -15 -6 -15 4 0 -1 -13 -11 -30 -9 -16 -21 -30 -25 -30 -4 0 -8 -5 -8
-11 0 -7 -7 -17 -16 -23 -13 -10 -13 -12 5 -13 35 -3 125 100 178 202 24 47
25 52 14 114 -13 68 -35 121 -51 121 -6 0 -10 -7 -10 -15 0 -19 -36 -20 -43
-1 -3 7 -23 17 -44 21 -21 4 -43 11 -50 16 -12 11 -139 19 -163 12z m41 -114
c20 -5 42 -16 49 -24 11 -13 7 -15 -21 -16 -42 -1 -116 0 -146 3 -31 3 -29 16
2 24 14 3 25 13 25 21 0 16 3 15 91 -8z m91 -136 c25 -22 23 -43 -5 -43 -20 0
-24 5 -25 30 -1 34 4 37 30 13z m135 -18 c8 -22 -6 -33 -17 -15 -13 20 -12 30
0 30 6 0 13 -7 17 -15z m-80 -11 c-3 -3 -12 -4 -19 -1 -8 3 -5 6 6 6 11 1 17
-2 13 -5z m-247 -88 c0 -3 -4 -8 -10 -11 -5 -3 -10 -1 -10 4 0 6 5 11 10 11 6
0 10 -2 10 -4z"/>
<path d="M3795 2710 c3 -5 -3 -14 -14 -20 -17 -9 -19 -8 -15 5 4 8 1 15 -5 15
-7 0 -14 -7 -18 -16 -3 -8 -11 -13 -18 -10 -7 2 -18 -7 -24 -20 -6 -14 -15
-23 -20 -20 -5 3 -19 -3 -32 -13 -21 -17 -22 -22 -11 -45 7 -15 9 -38 6 -52
-4 -14 -2 -24 5 -24 6 0 11 -12 11 -27 0 -16 5 -35 10 -43 7 -11 10 -6 10 22
0 45 8 52 38 28 13 -11 18 -21 12 -25 -15 -9 -12 -25 5 -25 20 0 19 -9 -2 -33
-10 -11 -12 -17 -5 -13 8 5 12 -1 12 -18 0 -17 4 -24 13 -20 7 2 22 -5 34 -16
12 -11 32 -20 45 -20 19 0 20 2 8 11 -12 9 -12 10 3 5 11 -3 31 -9 45 -12 l27
-6 -29 24 c-25 21 -27 26 -12 31 9 4 27 2 40 -3 24 -9 112 -6 147 5 9 3 22 -1
29 -10 24 -28 30 -15 30 65 0 79 0 80 -27 86 -82 18 -114 27 -170 46 -59 20
-82 38 -49 38 8 0 16 4 18 10 2 5 31 13 64 16 64 7 138 -1 130 -15 -3 -4 4
-12 15 -19 16 -10 19 -9 19 4 0 18 -28 49 -37 40 -4 -3 -16 3 -27 13 -23 21
-86 40 -153 46 -23 2 -58 8 -78 14 -19 5 -33 6 -30 1z m55 -239 c0 -12 -20
-25 -27 -18 -7 7 6 27 18 27 5 0 9 -4 9 -9z m170 -51 c-20 -13 -33 -13 -25 0
3 6 14 10 23 10 15 0 15 -2 2 -10z m-69 -20 c10 0 19 -4 19 -9 0 -15 -36 -19
-60 -6 -22 12 -22 13 -4 23 11 6 20 7 22 1 2 -5 12 -9 23 -9z"/>
<path d="M3928 2313 c7 -3 16 -2 19 1 4 3 -2 6 -13 5 -11 0 -14 -3 -6 -6z"/>
<path d="M2661 1824 c0 -11 3 -14 6 -6 3 7 2 16 -1 19 -3 4 -6 -2 -5 -13z"/>
<path d="M2712 1789 c-15 -23 -15 -29 -1 -29 5 0 7 5 4 10 -3 6 1 10 9 10 17
0 22 15 8 24 -4 2 -13 -4 -20 -15z"/>
<path d="M2791 1803 c-1 -7 -7 -12 -13 -10 -8 1 -12 -6 -10 -18 5 -26 13 -34
19 -17 3 6 9 10 14 6 11 -6 11 4 -1 31 -5 11 -9 14 -9 8z"/>
<path d="M2771 1724 c0 -11 3 -14 6 -6 3 7 2 16 -1 19 -3 4 -6 -2 -5 -13z"/>
<path d="M2790 1661 c0 -6 4 -13 10 -16 6 -3 7 1 4 9 -7 18 -14 21 -14 7z"/>
<path d="M2880 1618 c0 -9 5 -20 11 -23 17 -11 18 -2 3 19 -12 17 -14 17 -14
4z"/>
<path d="M4099 1443 c-13 -16 -12 -17 4 -4 9 7 17 15 17 17 0 8 -8 3 -21 -13z"/>
<path d="M1840 934 c0 -30 40 -104 57 -104 7 0 10 -7 6 -16 -5 -14 -3 -15 18
-4 13 7 26 14 28 16 2 2 -15 21 -38 44 -22 22 -44 52 -47 65 -8 33 -24 32 -24
-1z"/>
<path d="M1945 800 c-3 -5 1 -10 9 -10 9 0 16 5 16 10 0 6 -4 10 -9 10 -6 0
-13 -4 -16 -10z"/>
<path d="M3980 430 c0 -11 2 -20 4 -20 2 0 6 9 9 20 3 11 1 20 -4 20 -5 0 -9
-9 -9 -20z"/>
<path d="M4000 395 c0 -8 2 -15 4 -15 2 0 6 7 10 15 3 8 1 15 -4 15 -6 0 -10
-7 -10 -15z"/>
<path d="M3560 224 c0 -2 9 -8 20 -14 11 -6 20 -7 20 -2 0 6 -9 12 -20 15 -11
3 -20 3 -20 1z"/>
<path d="M7 143 c-4 -3 -7 -37 -7 -75 l0 -68 166 0 c144 0 165 2 154 14 -16
20 -104 76 -126 81 -11 2 -50 15 -89 29 -75 27 -88 30 -98 19z"/>
</g>
</svg>
